<svg width="84" height="80" viewBox="0 0 84 80" fill="none" xmlns="http://www.w3.org/2000/svg">
<path d="M41.0767 1.21993C41.4183 0.398637 42.5817 0.398636 42.9233 1.21993L53.6681 27.0534C53.8121 27.3997 54.1377 27.6363 54.5115 27.6662L82.4009 29.9021C83.2876 29.9732 83.6471 31.0797 82.9716 31.6584L61.7228 49.8602C61.438 50.1042 61.3136 50.487 61.4006 50.8517L67.8925 78.0671C68.0989 78.9323 67.1576 79.6162 66.3985 79.1525L42.5213 64.5684C42.2012 64.3729 41.7988 64.3729 41.4787 64.5684L17.6015 79.1525C16.8424 79.6162 15.9011 78.9323 16.1075 78.0671L22.5994 50.8517C22.6864 50.487 22.562 50.1042 22.2772 49.8602L1.02841 31.6584C0.352876 31.0797 0.712402 29.9732 1.59906 29.9021L29.4885 27.6662C29.8623 27.6363 30.1879 27.3997 30.3319 27.0534L41.0767 1.21993Z" fill="white"/>
</svg>
